PathFileType	4	(X/Y/Z)	C:/Users/opensim2020/Desktop/walking_exp_matlab/subject03_walking09_straight_01.trc	
DataRate	CameraRate	NumFrames	NumMarkers	Units	OrigDataRate	OrigDataStartFrame	OrigNumFrames	
100.00	100.00	6	47	mm	100.00	809	493	
Frame#	Time	LFHD			RFHD			LBHD			RBHD			C7			T10			CLAV			STRN			RBAK			LSHO			LUPA			LELB			LFRM			LWRA			LWRB			LFIN			RSHO			RUPA			RELB			RFRM			RWRA			RWRB			RFIN			LASI			RASI			LPSI			RPSI			LTHI			LKNE			LTIB			LANK			LHEE			LTOE			RTHI			RKNE			RTIB			RANK			RHEE			RTOE			*39			*40			*41			*42			*43			*44			*45			*46			
		X1	Y1	Z1	X2	Y2	Z2	X3	Y3	Z3	X4	Y4	Z4	X5	Y5	Z5	X6	Y6	Z6	X7	Y7	Z7	X8	Y8	Z8	X9	Y9	Z9	X10	Y10	Z10	X11	Y11	Z11	X12	Y12	Z12	X13	Y13	Z13	X14	Y14	Z14	X15	Y15	Z15	X16	Y16	Z16	X17	Y17	Z17	X18	Y18	Z18	X19	Y19	Z19	X20	Y20	Z20	X21	Y21	Z21	X22	Y22	Z22	X23	Y23	Z23	X24	Y24	Z24	X25	Y25	Z25	X26	Y26	Z26	X27	Y27	Z27	X28	Y28	Z28	X29	Y29	Z29	X30	Y30	Z30	X31	Y31	Z31	X32	Y32	Z32	X33	Y33	Z33	X34	Y34	Z34	X35	Y35	Z35	X36	Y36	Z36	X37	Y37	Z37	X38	Y38	Z38	X39	Y39	Z39	X40	Y40	Z40	X41	Y41	Z41	X42	Y42	Z42	X43	Y43	Z43	X44	Y44	Z44	X45	Y45	Z45	X46	Y46	Z46	X47	Y47	Z47	

185	1.840	-1068.11047	-534.05420	1621.57922	-937.43225	-559.19415	1628.89539	-1085.07532	-653.92029	1562.13062	-955.74023	-674.10858	1569.09436	-1026.58911	-678.09814	1412.48157	-1029.21826	-712.45740	1101.47864	-1009.90497	-556.88214	1335.59778	-1015.19757	-514.48755	1169.75342	-939.58215	-741.90454	1237.21924	-1169.88062	-578.61249	1373.74109	-1234.44885	-574.21796	1174.54236	-1237.69165	-560.03046	1051.02490	-1223.34521	-525.02112	925.66119	-1181.09448	-504.13699	811.56140	-1235.56323	-517.17419	811.69470	-1215.06995	-500.63815	729.91705	-856.81775	-621.79565	1357.50342	-788.03998	-633.75372	1133.88489	-772.20093	-621.89923	1022.16461	-767.05066	-607.67188	886.02081	-795.70587	-572.36646	790.33856	-758.57794	-611.24231	785.43713	-765.90173	-589.78235	713.23615	-1136.11218	-549.49347	925.87463	-897.87311	-551.05023	939.34503	-1088.20093	-709.82990	962.15192	-939.61133	-710.26886	974.27917	-1173.37573	-663.47534	633.91675	-1138.96777	-703.83484	460.67465	-1144.39990	-818.85260	297.09723	-1107.97083	-903.92578	101.13858	-1072.06897	-951.36481	77.67155	-1082.25818	-767.08624	27.38695	-853.68988	-579.82635	648.32874	-889.47058	-535.63232	472.20386	-879.35846	-545.24133	285.17581	-922.58221	-528.11530	68.61727	-973.91589	-570.18542	35.27668	-937.44800	-384.49478	33.57079																								 
186	1.850	-1066.72363	-528.44653	1622.38135	-936.02216	-553.47778	1629.52368	-1083.63367	-648.20068	1562.73779	-954.27612	-668.32892	1569.54004	-1025.13599	-672.02460	1412.88550	-1027.22351	-706.21063	1101.89185	-1008.74365	-550.73090	1336.22278	-1014.23895	-508.01138	1170.44226	-937.96558	-735.27014	1237.48584	-1168.55603	-572.69025	1374.60339	-1233.50403	-568.97455	1175.49731	-1237.29260	-555.99823	1051.78735	-1223.83411	-522.39764	925.99969	-1182.34204	-502.59262	811.39911	-1236.69238	-515.89423	811.99402	-1216.43127	-501.13065	729.53510	-855.52301	-615.26178	1357.97705	-786.61951	-626.92871	1134.40356	-770.84888	-615.09894	1022.69348	-765.68762	-600.71051	886.56586	-794.40497	-565.14655	790.96271	-757.32721	-604.01819	785.98364	-764.81531	-582.31195	713.80463	-1135.07654	-543.84650	926.30933	-896.85693	-544.18207	939.60559	-1086.11853	-703.98969	962.86456	-937.59644	-703.38208	975.12189	-1172.81665	-657.86902	634.18335	-1139.31921	-697.56934	460.69928	-1144.49609	-814.58026	298.26041	-1108.45715	-901.64374	103.06976	-1072.07129	-950.22437	81.02229	-1082.42810	-766.89307	27.43041	-852.39514	-575.26599	648.70612	-888.64478	-532.74072	472.03186	-878.76984	-543.49896	285.17566	-922.59265	-527.92163	68.51257	-973.91803	-570.18555	35.25786	-937.58270	-384.42728	33.51607																								 
187	1.860	-1065.37219	-522.88074	1623.04456	-934.84766	-547.55121	1630.03784	-1082.26514	-642.53687	1563.20752	-952.84711	-662.53876	1569.80664	-1023.67261	-666.00024	1413.21619	-1025.29895	-699.89001	1102.36243	-1007.60010	-544.49933	1336.77979	-1013.23029	-501.61267	1170.99524	-936.32318	-728.70764	1237.69592	-1167.32129	-566.88379	1375.29846	-1232.71240	-563.53632	1176.27673	-1236.98950	-551.81451	1052.51538	-1224.31384	-519.47302	926.34784	-1183.68103	-500.89453	811.17389	-1238.02502	-514.32007	812.29486	-1218.12634	-501.14853	729.28271	-854.20795	-608.78156	1358.35840	-785.22235	-619.99646	1134.80713	-769.49078	-608.09998	1023.09705	-764.42664	-593.45520	887.01428	-793.28345	-557.79517	791.51807	-756.13464	-596.48279	786.37231	-763.58112	-574.86255	714.30621	-1134.00391	-538.20074	926.63574	-895.84033	-537.40515	939.67950	-1084.10107	-698.24860	963.37634	-935.57019	-696.63617	975.84747	-1172.44250	-652.12708	634.28448	-1139.82922	-690.82977	460.46414	-1144.67310	-809.90289	299.26340	-1109.00208	-900.10229	105.40960	-1072.30969	-948.55029	84.26903	-1082.47668	-766.65082	27.47491	-851.00555	-570.67444	649.02728	-887.64960	-529.83783	471.87692	-878.13678	-541.79889	285.12503	-922.58478	-527.80969	68.44170	-973.88959	-570.25177	35.29437	-937.67810	-384.38095	33.43447																								 
188	1.870	-1064.04517	-517.32428	1623.64063	-933.31348	-542.00311	1630.37024	-1080.79053	-636.88171	1563.53613	-951.40790	-656.73480	1569.98865	-1022.19128	-660.00684	1413.51001	-1023.34595	-693.85175	1102.62134	-1006.49695	-538.38538	1337.16565	-1012.25366	-495.38412	1171.42920	-934.59729	-722.27209	1237.85425	-1166.12488	-561.18933	1375.87817	-1231.82117	-558.24933	1176.90637	-1236.65674	-547.60107	1053.14832	-1224.89368	-516.46844	926.62317	-1185.13062	-498.94534	811.05511	-1239.45313	-512.48145	812.57239	-1220.03418	-500.74509	729.11621	-852.85059	-602.21649	1358.63672	-783.79095	-612.94147	1135.10437	-768.12103	-600.92877	1023.40955	-763.19080	-585.95697	887.33221	-792.23090	-550.20410	792.03015	-754.89642	-588.79053	786.76361	-762.45703	-566.88312	714.74054	-1132.93823	-532.70367	926.83173	-894.81812	-530.78906	939.72198	-1082.14722	-692.65802	963.79498	-933.64240	-690.08246	976.51782	-1171.75183	-645.82446	634.02313	-1140.74377	-683.67535	459.98441	-1144.85034	-804.83234	300.17151	-1109.04736	-898.02423	107.97172	-1072.16406	-946.91193	87.67486	-1082.67432	-766.89594	27.08258	-849.63135	-566.16473	649.31598	-886.54669	-526.86316	471.78705	-877.51300	-540.16461	285.04053	-922.55792	-527.69720	68.34287	-973.85101	-570.28864	35.29953	-937.71460	-384.34192	33.37549																								 
189	1.880	-1062.78418	-511.80099	1624.17139	-931.95221	-536.31152	1630.71948	-1079.40601	-631.28040	1563.78162	-949.96198	-650.94904	1570.01331	-1020.69922	-654.01636	1413.71924	-1021.50098	-687.71967	1102.90466	-1005.41046	-532.34955	1337.49023	-1011.40039	-489.21661	1171.74670	-932.83459	-715.88892	1238.00195	-1164.76648	-555.61469	1376.25439	-1230.97388	-553.10547	1177.38696	-1236.48560	-543.33527	1053.70105	-1225.59656	-513.38220	926.84204	-1186.69226	-496.90634	810.82355	-1240.99084	-510.36151	812.86420	-1222.12439	-499.83969	729.07825	-851.52802	-595.69775	1358.85803	-782.40527	-605.88251	1135.31323	-766.81348	-593.63452	1023.62927	-761.96088	-578.31848	887.62952	-791.18451	-542.42230	792.31244	-753.67523	-580.91217	787.03119	-761.26624	-558.77667	715.05359	-1131.84045	-527.39264	926.84924	-893.76129	-524.27026	939.76672	-1080.32141	-687.11694	964.07245	-931.89313	-683.75897	977.14417	-1172.12793	-639.91010	634.04474	-1141.21301	-675.83893	459.27621	-1145.08789	-799.40088	300.97614	-1109.10730	-895.73285	110.61436	-1071.97119	-945.00690	91.42097	-1082.61133	-766.66321	27.23610	-848.38403	-561.77478	649.59039	-885.45331	-523.92334	471.78436	-876.85254	-538.62781	284.99722	-922.50208	-527.66589	68.29861	-973.79376	-570.30768	35.25827	-937.74982	-384.35019	33.30977																								 
190	1.890	-1061.45862	-506.31595	1624.56653	-930.66119	-530.65991	1630.98071	-1077.99243	-625.64008	1563.92786	-948.49213	-645.14722	1570.01025	-1019.10999	-648.13818	1413.93652	-1019.71948	-681.79248	1103.08752	-1004.28918	-526.37280	1337.72522	-1010.42847	-483.22220	1171.94507	-931.02679	-709.57202	1238.15173	-1163.75208	-550.12488	1376.63831	-1230.23267	-548.14929	1177.81812	-1236.37109	-539.08832	1054.16565	-1226.32080	-510.16644	927.01093	-1188.27747	-494.67310	810.58716	-1242.60083	-508.11261	813.09045	-1224.34131	-498.54980	728.99188	-850.26587	-589.11646	1358.95386	-780.98608	-598.75208	1135.40137	-765.48041	-586.13312	1023.76776	-760.71899	-570.49524	887.82458	-790.19171	-534.49487	792.68396	-752.46136	-572.70056	787.19482	-760.11731	-550.35370	715.44165	-1130.80750	-522.20282	926.78131	-892.71863	-517.91150	939.88556	-1078.65833	-681.71454	964.12616	-930.29944	-677.67578	977.74451	-1171.77991	-633.16632	633.58600	-1142.51147	-667.74622	458.56619	-1145.32056	-793.54211	301.79565	-1108.73096	-892.93384	113.51407	-1071.68127	-942.73456	95.47179	-1082.43896	-766.44861	27.24814	-847.32050	-557.22070	649.82184	-884.39026	-520.90338	471.85580	-876.13379	-536.96088	284.95135	-922.38257	-527.59332	68.21742	-973.71149	-570.32404	35.18243	-937.74280	-384.34323	33.24937																								 
